<?xml version="1.0" encoding="utf-8"?>
<!-- Generator: Adobe Illustrator 19.1.0, SVG Export Plug-In . SVG Version: 6.00 Build 0)  -->
<svg version="1.1" id="superdelta_img" xmlns:sketch="http://www.bohemiancoding.com/sketch/ns"
	 xmlns="http://www.w3.org/2000/svg" xmlns:xlink="http://www.w3.org/1999/xlink" x="0px" y="0px" viewBox="-155 279.4 283.5 283.5"
	 style="enable-background:new -155 279.4 283.5 283.5;" xml:space="preserve">
<style type="text/css">
	.st0{fill:#666666;}
</style>
<path id="delta" class="st0" d="M76.5,412.8c14-98.8-62.4-126.7-97-125c-34.6,1.7-79.3,31.5-84,104.2c-4.7,72.7,50.6,83.5,49.9,86.3
	C-56.2,485-72,496.7-71,521c0.3,8.4,5,41,44.7,31.3c39.6-9.6,44.3,2.2,44.3,2.2s-1.7-22.4-21.3-20.9c-19.6,1.5-49,20.6-44.6-18.2
	c3.4-29.4,37.3-27.3,57.5-33.6C20.3,478.6,67.9,471.8,76.5,412.8L76.5,412.8z M50.3,365.1c23.9,90.2-63.9,99.1-72,101.4
	c-13.8,3.9-25.6,8.6-25.6,8.6s-53.8-36.4-34-112C-61,285.3,22.3,259.2,50.3,365.1L50.3,365.1z"/>
<g>
	<path class="st0" d="M-14,369.7c0.9,5.2,3.2,7.2,7.8,13.7c2.9,4.1,4.7,7.6,5.6,10.5c0.8,2.8,1,5.5,0.6,8.1
		c-0.6,3.7-2.4,6.9-5.6,9.5c-4.3,3.6-10.4,4.8-18.1,3.6c-6.3-1-11-3.2-14.2-6.8c-3.2-3.6-4.5-7.3-3.9-11.2c0.4-2.6,1.4-4.5,2.9-5.7
		c1.5-1.2,3.1-1.7,4.7-1.5c1.2,0.2,2.2,0.8,3,1.8c0.7,1,1,2.1,0.8,3.3c-0.1,1-0.9,2.3-2.4,4c-1.4,1.7-2.2,3.2-2.4,4.5
		c-0.3,1.7,0.5,3.3,2.1,5c1.7,1.7,4.2,2.8,7.4,3.3c3.7,0.6,7-0.2,10-2.4c3-2.2,4.8-5.5,5.4-9.9c0.3-2.1,0.3-4.3,0-6.5
		c-0.4-2.2-1.4-5.4-3-9.7c-2.1-5.5-4.1-6.7-3.9-12.8c0.1-2,2-11.1,2.9-11.5C-14,359.6-14.4,367.1-14,369.7z M-16,350.5
		c-0.8-1.1-1.1-2.3-0.9-3.6c0.2-1.3,0.8-2.4,1.9-3.2c1.1-0.8,2.3-1.1,3.6-0.9c1.3,0.2,2.4,0.8,3.2,1.9c0.8,1.1,1.1,2.3,0.9,3.6
		c-0.2,1.3-0.8,2.4-1.9,3.2c-1.1,0.8-2.3,1.1-3.6,0.9C-14.2,352.3-15.2,351.6-16,350.5z"/>
</g>
<g>
	<path class="st0" d="M-31.8,361.2c-3.1-3-13-6.9-22.1-8c-10-1.2-15.4,0.9-19.1,3.1l0,0c3.6-3.7,7.4-7.9,19.6-6.4
		C-41.3,351.3-34.7,356.7-31.8,361.2L-31.8,361.2z"/>
	<path class="st0" d="M-61.9,356.4c0.1-1,0.4-1.9,0.9-2.8c0.5-0.8,1.1-1.6,1.8-2.1c0.7-0.6,1.6-1,2.5-1.3c0.9-0.3,1.9-0.4,2.9-0.2
		c1,0.1,1.9,0.4,2.8,0.9c0.8,0.5,1.6,1.1,2.1,1.9s1,1.6,1.3,2.5c0.3,0.9,0.4,1.9,0.2,2.9s-0.4,1.9-0.9,2.8c-0.5,0.8-1.1,1.6-1.9,2.1
		c-0.7,0.6-1.6,1-2.5,1.3c-0.9,0.3-1.9,0.4-2.9,0.2c-1-0.1-1.9-0.4-2.8-0.9c-0.8-0.5-1.6-1.1-2.1-1.8s-1-1.6-1.3-2.5
		S-62,357.4-61.9,356.4z M-59.1,356.7c-0.1,0.6,0,1.2,0.1,1.8c0.2,0.6,0.4,1.1,0.8,1.6c0.4,0.5,0.8,0.9,1.3,1.2
		c0.5,0.3,1.1,0.5,1.7,0.6c0.6,0.1,1.2,0,1.8-0.2c0.6-0.2,1.1-0.5,1.5-0.9c0.5-0.4,0.8-0.8,1.1-1.4c0.3-0.5,0.5-1.1,0.6-1.7
		c0.1-0.6,0-1.2-0.1-1.8s-0.4-1.1-0.7-1.6c-0.3-0.5-0.8-0.9-1.3-1.2c-0.5-0.3-1.1-0.5-1.8-0.6c-0.6-0.1-1.3,0-1.8,0.2
		c-0.6,0.2-1.1,0.5-1.6,0.8c-0.5,0.4-0.8,0.8-1.1,1.4C-58.8,355.5-59,356-59.1,356.7z"/>
	<path class="st0" d="M46,370.3c-3.1-3-13-6.9-22.1-8c-10-1.2-15.4,0.9-19.1,3.1l0,0c3.6-3.7,7.4-7.9,19.6-6.4
		C36.5,360.5,43.1,365.9,46,370.3L46,370.3z"/>
	<path class="st0" d="M-0.8,428.3c-6.7,7-14.6,10-27.4,8.5c-12.7-1.5-21.5-6.4-26.3-14.8l0,0c2.1,2.3,7.6,4.6,13,6.4
		c4.5,1.5,9.2,2.6,13.9,3.1c4.8,0.6,9.6,0.6,14.3,0.2C-7.6,431.2-3.5,430-0.8,428.3L-0.8,428.3z"/>
	<path class="st0" d="M15.6,366c0.1-1,0.4-1.9,0.9-2.8c0.5-0.8,1.1-1.6,1.8-2.1c0.7-0.6,1.6-1,2.5-1.3s1.9-0.4,2.9-0.2
		c1,0.1,1.9,0.4,2.8,0.9c0.8,0.5,1.6,1.1,2.1,1.9s1,1.6,1.3,2.5c0.3,0.9,0.4,1.9,0.2,2.9c-0.1,1-0.4,1.9-0.9,2.8
		c-0.5,0.8-1.1,1.6-1.9,2.1c-0.7,0.6-1.6,1-2.5,1.3c-0.9,0.3-1.9,0.4-2.9,0.2c-1-0.1-1.9-0.4-2.8-0.9c-0.8-0.5-1.6-1.1-2.1-1.8
		s-1-1.6-1.3-2.5S15.4,367,15.6,366z M18.4,366.3c-0.1,0.6,0,1.2,0.1,1.8c0.2,0.6,0.4,1.1,0.8,1.6c0.4,0.5,0.8,0.9,1.3,1.2
		c0.5,0.3,1.1,0.5,1.7,0.6c0.6,0.1,1.2,0,1.8-0.2c0.6-0.2,1.1-0.5,1.5-0.9c0.5-0.4,0.8-0.8,1.1-1.4s0.5-1.1,0.6-1.7
		c0.1-0.6,0-1.2-0.1-1.8c-0.1-0.6-0.4-1.1-0.7-1.6c-0.3-0.5-0.8-0.9-1.3-1.2c-0.5-0.3-1.1-0.5-1.8-0.6c-0.6-0.1-1.3,0-1.8,0.2
		c-0.6,0.2-1.1,0.5-1.6,0.8c-0.5,0.4-0.8,0.8-1.1,1.4C18.6,365.1,18.4,365.6,18.4,366.3z"/>
</g>
</svg>
